<svg xmlns="http://www.w3.org/2000/svg" viewBox="0 0 24 24" fill="none">
  <path d="M12 2C6.47715 2 2 6.47715 2 12C2 17.5228 6.47715 22 12 22C17.5228 22 22 17.5228 22 12C22 6.47715 17.5228 2 12 2Z" fill="#1DB954"/>
  <path d="M16.7885 16.7885C16.4325 17.1445 15.8521 17.1445 15.4961 16.7885C13.8793 15.1717 11.5207 15.1717 9.90393 16.7885C9.54793 17.1445 8.96753 17.1445 8.61153 16.7885C8.25553 16.4325 8.25553 15.8521 8.61153 15.4961C10.9283 13.1793 14.4717 13.1793 16.7885 15.4961C17.1445 15.8521 17.1445 16.4325 16.7885 16.7885Z" fill="white"/>
  <path d="M18.364 13.636C18.0081 13.992 17.4277 13.992 17.0717 13.636C14.0081 10.5724 9.99213 10.5724 6.92853 13.636C6.57253 13.992 5.99213 13.992 5.63613 13.636C5.28013 13.28 5.28013 12.6996 5.63613 12.3436C9.40973 8.57 14.5905 8.57 18.364 12.3436C18.72 12.6996 18.72 13.28 18.364 13.636Z" fill="white"/>
  <path d="M19.9393 10.0607C19.5833 10.4167 19.0029 10.4167 18.6469 10.0607C14.1547 5.56853 9.84533 5.56853 5.35313 10.0607C4.99713 10.4167 4.41673 10.4167 4.06073 10.0607C3.70473 9.70467 3.70473 9.12427 4.06073 8.76827C9.26873 3.56027 14.7313 3.56027 19.9393 8.76827C20.2953 9.12427 20.2953 9.70467 19.9393 10.0607Z" fill="white"/>
</svg> 