<?xml version="1.0" encoding="UTF-8" standalone="no"?>
<svg
   version="1.1"
   style="display:block"
   viewBox="0 0 2048 2048"
   width="1024"
   height="1024"
   id="svg67"
   xmlns="http://www.w3.org/2000/svg"
   xmlns:svg="http://www.w3.org/2000/svg">
  <defs
     id="defs2">
    <linearGradient
       id="Gradient1"
       gradientUnits="userSpaceOnUse"
       x1="364.85901"
       y1="355.52301"
       x2="439.466"
       y2="128.39999">
      <stop
         class="stop0"
         offset="0"
         stop-opacity="1"
         stop-color="rgb(248,207,174)"
         id="stop1" />
      <stop
         class="stop1"
         offset="1"
         stop-opacity="1"
         stop-color="rgb(255,235,199)"
         id="stop2" />
    </linearGradient>
  </defs>
  <path
     fill="#fdfbf2"
     d="m 146.149,474.756 c -1.455,-2.244 -3.17,-6.071 -3.922,-8.666 -0.413,-1.424 -0.859,-3.541 -0.09,-4.856 l 1.592,-0.087 c 4.483,2.643 6.506,7.28 9.116,11.625 -2.246,0.798 -4.357,1.487 -6.696,1.984 z"
     id="path3" />
  <path
     fill="#f6dcbf"
     d="m 320.329,476.283 1.988,0.704 c 8.601,11.755 21.352,75.789 26.071,94.074 8.61,33.358 16.787,66.968 27.384,99.758 -5.96,16.155 -13.876,26.57 -27.233,37.273 -10.857,8.702 -27.416,19.039 -41.905,17.499 -2.404,-0.232 -5.095,-0.355 -7.367,-1.211 -4.983,-1.877 -6.815,-6.877 -8.918,-11.296 1.362,-4.339 2.974,-8.589 5.284,-12.523 10.171,-17.32 28.681,-31.529 47.476,-38.369 3.301,-1.201 7.308,-1.506 10.778,-2.401 1.529,-2.001 -4.383,-21.583 -5.224,-25.468 -4.555,-21.041 -8.147,-42.285 -12.722,-63.318 -4.502,-20.703 -16.907,-64.654 -16.706,-82.889 0.018,-1.623 0.17,-2.438 -0.419,-4.015 -0.139,-0.372 -0.377,-0.705 -0.507,-1.081 -0.983,-2.843 0.651,-4.294 2.02,-6.737 z"
     id="path4" />
  <path
     fill="#f6dcbf"
     d="m 152.845,472.772 c 26.692,45.427 44.78,95.552 69.931,141.698 -4.866,21.94 -16.955,35.739 -35.662,47.721 -11.252,7.207 -34.525,17.253 -47.737,13.99 -3.413,-0.843 -8.248,-3.949 -9.623,-7.317 -2.929,-7.171 0.599,-18.182 4.363,-24.288 11.148,-18.083 35.495,-34.084 56.045,-38.684 4.344,-0.972 8.686,-1.445 13.116,-1.801 -7.895,-16.083 -14.641,-32.68 -22.066,-48.985 -12.056,-26.477 -24.691,-53.162 -35.063,-80.35 2.339,-0.497 4.45,-1.186 6.696,-1.984 z"
     id="path5" />
  <path
     fill="url(#Gradient1)"
     d="m 488.361,143.307 c 2.534,0.61 3.161,0.142 4.643,2.421 -1.263,7.647 -2.999,15.019 -5.321,22.42 -11.24,35.824 -25.397,71.251 -38.121,106.617 -5.962,16.573 -14.731,48.876 -23.334,62.106 -5.826,8.959 -18.939,12.938 -28.948,15.08 -25.194,5.392 -54.822,2.787 -76.699,-11.566 -2.986,-3.19 -5.833,-6.563 -6.209,-11.107 -0.326,-3.939 1.094,-7.381 3.796,-10.199 11.863,-12.371 37.902,-15.151 54.012,-15.382 14.978,-0.214 36.806,2.841 47.873,13.623 7.372,-16.556 12.324,-34.296 18.62,-51.294 9.467,-25.56 20.008,-50.732 29.897,-76.129 5.961,-15.31 11.152,-32.669 19.791,-46.59 z"
     id="path6"
     style="fill:url(#Gradient1)" />
  <path
     fill="#4f2c30"
     d="m 1103.73,79.4867 c 54.44,-1.4653 101.64,3.1376 154.14,18.6816 85.33,25.2687 153.73,71.4887 196.63,151.1327 13.25,24.593 23.86,52.879 30.54,79.973 12.77,51.845 16.06,113.125 12.75,166.409 -0.56,8.956 -0.48,18.656 -3.04,27.285 6.03,8.19 12.76,15.806 18.53,24.224 16.9,24.645 27.16,54.381 31.25,83.876 1.56,11.25 1.15,22.812 1.05,34.151 -0.51,56.711 -15.78,113.2 -50.37,158.878 -9.1,12.016 -19.39,24.369 -30.57,34.496 -19.08,17.284 -61.11,44.083 -86.66,47.478 -34.61,4.596 -60.79,5.223 -89.75,-16.932 -5.63,23.851 -20.13,48.552 -31.12,70.504 -8.91,17.794 -17.67,35.782 -27.34,53.177 -19.8,35.57 -41.82,70.15 -63.05,104.89 -8.04,13.17 -17.19,25.66 -25.18,38.85 -24.19,39.92 -46.03,82.3 -63.21,125.71 -31.39,79.32 -39.29,173.13 -4.51,252.86 5.56,-7.43 11.24,-14.67 17.63,-21.41 49.52,-52.27 119.07,-77.12 190.27,-78.67 85.74,-1.86 171.73,23.38 234.48,83.66 28.92,27.78 47.09,63.1 62.08,99.74 5.02,12.27 9.99,24.4 13.08,37.34 6.25,26.21 8.3,53.59 8.75,80.49 40.24,9.13 106.25,12.77 143.85,-6.39 10.86,-5.53 16.8,-12.13 20.54,-23.5 -1.31,-4.76 -2.67,-9.49 -5.45,-13.63 -16.43,-24.46 -63.45,-49.17 -87.82,-68.73 -13.02,-10.45 -22.39,-20.84 -32.01,-34.39 -4.22,-5.94 -8.72,-12 -11.41,-18.83 -9.68,-24.53 -5.36,-56.15 5.25,-79.67 26.8,-59.42 95.86,-113.74 156.33,-136.03 11.52,-4.24 36.08,-10.98 47.27,-4.09 3.69,2.27 5.21,8.69 6.58,12.56 -0.71,3.33 -1.34,6.94 -2.86,10.01 -4.33,8.77 -12.98,16.63 -19.8,23.49 -27.36,27.5 -65.82,57.19 -69.44,99.1 -5.15,59.63 85.81,72.73 126.68,91.38 26.57,12.13 50.87,28.47 69.68,51.01 l 0.82,1 c 10.02,10.74 18.49,24.6 25.19,37.61 14.36,27.87 18.99,67.27 9.32,97.3 -11.84,36.77 -41.28,59.24 -74.48,76.25 -25.34,12.99 -53.36,20.14 -80.88,26.88 -83.06,20.36 -168.21,30.59 -253.81,26.55 -20.53,-0.97 -41.77,-1.43 -61.45,-7.82 -8.78,3.11 -17.04,8.06 -25.42,12.12 -9.1,4.41 -19.08,8.32 -28.65,11.61 -63.64,21.91 -138.09,36.68 -204.86,46.93 -42.81,6.56 -85.57,9.59 -128.74,12.32 -19.26,1.22 -38.51,3.15 -57.81,3.61 -34.64,0.82 -68.293,-1.18 -102.722,-4.12 -15.354,-1.31 -31.015,-2.05 -46.266,-4.19 -84.981,-11.95 -164.894,-39.94 -234.335,-90.87 -79.702,-58.46 -138.331,-149.07 -164.605,-244.01 -6.319,-22.84 -9.88,-46.68 -13.412,-70.1 -3.576,-23.7 -3.03,-47.11 -2.994,-70.97 0.035,-22.57 0.236,-45.55 2.938,-67.98 3.876,-32.18 11.96,-64.99 20.769,-96.13 4.284,-15.14 8.284,-30.56 13.426,-45.44 26.172,-75.72 65.301,-148.63 108.432,-216.03 11.003,-17.2 22.867,-33.89 34.205,-50.87 A 3227.65,3227.65 0 0 1 766.411,900.186 C 689.125,864.716 635.394,831.697 583.763,761.841 544.573,708.816 527.951,634.878 537.734,569.869 c -3.311,-3.687 -6.108,-7.91 -8.451,-12.277 -19.308,-35.983 -13.896,-74.155 -2.465,-111.496 a 245.561,245.561 0 0 1 22.91,-53.235 c 23.127,-39.725 65.218,-84.976 106.246,-106.627 24.335,-12.842 42.599,-13.719 68.748,-5.641 3.849,-3.898 7.352,-8.117 11.025,-12.181 53.923,-59.66 141.457,-120.454 215.678,-151.008 25.707,-10.582 53.695,-18.878 80.635,-25.5899 23.84,-5.9394 47.01,-11.0847 71.67,-12.3274 z"
     id="path7" />
  <path
     fill="#fdfbf2"
     d="m 1961.64,1767.44 c -0.06,1.84 -0.28,3.27 -0.9,5.03 -11.33,32.39 -53.08,51.41 -82.14,64.62 -0.45,-4.51 1.13,-9.41 2.19,-13.77 l 3.2,-1.03 c 15.12,-4.81 53.44,-23.04 63.52,-34.43 5.1,-5.77 8.61,-13.34 13.41,-19.5 z"
     id="path8" />
  <path
     fill="#f2a8ad"
     d="m 785.566,908.499 c 5.309,1.496 10.559,3.572 15.767,5.404 -7.699,18.243 -19.198,35.449 -29.404,52.396 -4.151,-0.828 -11.589,-9.147 -15.207,-12.218 6.991,-15.879 19.165,-31.124 28.844,-45.582 z"
     id="path9" />
  <path
     fill="#f6dcbf"
     d="m 1864.5,1829.16 1.3,0.04 c 1.68,2.5 -0.35,10.06 -0.74,13.27 -29.89,7.59 -59.56,16.85 -89.87,22.66 l -1.78,0.6 c -0.3,-3.87 -1.33,-11.23 0.29,-14.75 1.09,-2.37 3.39,-3.45 5.79,-4.04 15.42,-3.8 31.94,-5.66 47.6,-8.66 12.62,-2.41 24.95,-5.98 37.41,-9.12 z"
     id="path10" />
  <path
     fill="#f6dcbf"
     d="m 1562.49,1851.68 c 21.98,5.05 41.29,6.76 63.76,7.53 -2.97,6.01 -5.16,12.4 -7.55,18.66 -4,4.5 -12.47,2.69 -17.89,3.86 -0.6,0.13 -1.2,0.27 -1.8,0.41 l -2.19,-2.13 c -9.56,3.62 -48.64,0.7 -59.62,-1.54 3.65,-7.25 19.03,-16.93 24.83,-26.04 0.16,-0.24 0.31,-0.5 0.46,-0.75 z"
     id="path11" />
  <path
     fill="#f6dcbf"
     d="m 1759.03,1850.43 c 1.06,0.46 1.25,1.09 1.9,2.02 -0.02,4.92 0.64,10.63 -2.45,14.75 -9.53,3.27 -21.38,3.58 -31.39,4.86 -31.54,4.04 -62.98,8.05 -94.83,8.44 -0.12,-6.62 7.57,-11.83 7.25,-18.47 -0.03,-0.65 -0.11,-1.3 -0.17,-1.95 0.45,-0.55 0.72,-1.32 1.35,-1.67 2.21,-1.24 25.93,-1.07 29.75,-1.21 a 971.327,971.327 0 0 0 88.59,-6.77 z"
     id="path12" />
  <path
     fill="#70404a"
     d="m 1357.46,515.034 1.1,0.581 c -3.82,6.248 -16.92,10.173 -23.22,14.546 -8.61,5.984 -16.35,13.469 -24.14,20.486 -33.4,30.076 -50.11,55.938 -63.53,98.933 -17.02,54.534 -19.61,113.763 1.41,167.771 5.2,13.347 12.2,25.99 18.81,38.667 l -1.37,0.32 c -10.89,-15.69 -20.68,-32.018 -26.77,-50.211 -10.67,-31.834 -15.83,-70.379 -11.57,-103.791 1.88,-14.707 5.8,-29.095 9.5,-43.424 4.14,-16.033 8.4,-31.674 15.91,-46.539 22.53,-44.644 55.3,-81.184 103.87,-97.339 z"
     id="path13" />
  <path
     fill="#f2a8ad"
     d="m 604.2,1761.51 c 6.132,1.49 12.589,5.87 18.378,8.54 10.341,4.78 20.106,8 31.197,10.56 7.659,9.98 13.353,21.55 20.396,32 19.975,29.64 44.316,56.9 72.83,78.58 -0.359,-0.07 -0.724,-0.11 -1.079,-0.2 -9.953,-2.56 -21.061,-10.8 -29.609,-16.44 -47.149,-31.14 -80.37,-66.48 -112.113,-113.04 z"
     id="path14" />
  <path
     fill="#f2a8ad"
     d="m 1812.52,1370.09 3.01,0.05 c -1.04,1.73 -0.56,1.45 -1.94,2.32 -19.05,12.01 -41.88,36.11 -55.18,54.49 -7.14,9.87 -13.13,20.64 -21.15,29.85 -7.11,-2.53 -14.29,-6.75 -21.7,-8.14 -2.63,-0.49 -4.97,-1.32 -7.46,-2.26 -1.79,-0.53 -2.85,-0.81 -4.72,-0.5 -3.28,0.54 -6.56,0.59 -9.88,0.7 l 0.01,-0.66 c 20.85,-29.2 85.08,-68.94 119.01,-75.85 z"
     id="path15" />
  <path
     fill="#f2a8ad"
     d="m 1684.49,1455.03 c 18.36,-0.25 33.56,0.5 48.82,11.97 -4.08,9.58 -7.27,19.27 -7.97,29.74 -0.29,4.25 0.33,9.03 -0.97,13.11 -3.71,1.92 -31.77,1.38 -39.73,2.56 -13.94,3.02 -25.86,8.51 -38.38,15.24 10.5,-30.52 16.91,-47.29 38.23,-72.62 z"
     id="path16" />
  <path
     fill="#f2a8ad"
     d="m 1595.37,1756.5 c 7.91,1.84 23.97,2.66 29.4,8.75 11.33,12.74 8.64,59.39 7.66,75.86 a 354.705,354.705 0 0 1 -21.65,-0.68 c -12.71,1.48 -27.25,-1.28 -40.2,-1.51 13.87,-24.86 22.15,-54.08 24.79,-82.42 z"
     id="path17" />
  <path
     fill="#f6dcbf"
     d="m 1552.78,1818.79 1.06,1.67 c -1.02,3.19 -2.61,6.12 -4.18,9.07 -25.94,48.56 -121.86,75.18 -173.62,88.12 a 2254.45,2254.45 0 0 1 -33.44,7.96 c -4.18,0.94 -8.13,1.13 -12.3,2.4 l -1.08,0.34 -1.65,-0.09 -0.9,-1.15 c 3.49,-6.92 9.6,-12.85 14.87,-18.45 61.31,-11.04 127.59,-35.37 180.69,-68 10.4,-6.39 21.86,-13.3 30.55,-21.87 z"
     id="path18" />
  <path
     fill="#f2a8ad"
     d="m 749.562,962.492 c 5.727,3.96 10.796,9.503 16.573,13.704 -8.854,18.746 -22.392,36.004 -33.049,53.844 -19.7,32.98 -37.705,66.91 -56.405,100.45 -8.364,-8.97 -13.209,-20.61 -16.704,-32.17 a 3049.64,3049.64 0 0 1 89.585,-135.828 z"
     id="path19" />
  <path
     fill="#f2a8ad"
     d="m 1693.89,1521.39 c 11.48,-0.6 22.77,-0.61 34.01,2.01 7.22,10.61 10.67,23.38 21.8,30.93 -23.05,8.33 -42.36,15.46 -59.89,33.48 l -9.93,12.47 c -13.96,-12.91 -26.72,-27.91 -31.43,-46.88 -1.26,-5.07 -1.85,-11.06 1.28,-15.61 7.46,-10.85 32.03,-14.69 44.16,-16.4 z"
     id="path20" />
  <path
     fill="#70404a"
     d="m 710.863,303.998 0.727,0.719 c 1.239,4.652 -0.157,11.002 -0.605,15.808 -16.877,19.383 -37.321,36.01 -54.878,54.974 -20.503,22.146 -37.317,45.074 -53.805,70.252 -5.068,7.74 -10.561,14.97 -14.995,23.12 -10.716,19.698 -19.091,40.162 -29.128,60.11 l -1.644,-2.146 c -2.533,-13.408 3.782,-32.916 8.356,-45.636 23.713,-65.949 81.906,-147.163 145.972,-177.201 z"
     id="path21" />
  <path
     fill="#f2a8ad"
     d="m 1756.43,1565.18 c 0.71,-0.15 1.77,-0.41 2.48,-0.38 3.6,0.11 34.46,17.83 41.49,20.74 6.38,2.65 18.32,4.66 22.43,9.91 -3.92,0.66 -7.92,1.03 -11.75,2.14 -22.82,6.58 -48.4,27.2 -59.58,48.09 l -0.67,1.27 -1.47,2.45 c -4.65,0.41 -55.8,-37.69 -63.01,-43.06 21.34,-22.89 39.18,-34.25 70.08,-41.16 z"
     id="path22" />
  <path
     fill="#f6dcbf"
     d="m 693.638,289.364 c 5.524,-0.257 12.749,0.007 17.527,3.102 l 0.146,1.589 c -5.901,4.314 -13.768,6.659 -20.301,10.071 -11.227,5.865 -21.693,13.316 -31.543,21.246 -58.989,47.487 -109.403,128.16 -117.869,204.111 -0.313,3.851 -0.712,7.058 -2.034,10.701 l -1.027,0.176 c -1.001,-1.759 -1.579,-3.201 -2.099,-5.178 -11.61,-44.1 8.918,-102.534 31.702,-140.262 26.303,-43.555 75.573,-93.044 125.498,-105.556 z"
     id="path23" />
  <path
     fill="#70404a"
     d="m 1109.36,127.402 c 20.81,-1.86 46.65,0.31 66.7,6.445 7.35,2.248 14.56,5.737 21.62,8.786 l 1.47,-1.737 -0.84,2.08 1.26,0.566 -0.49,0.251 c -21.93,-10.789 -91.28,4.936 -114.13,12.456 -21.2,6.978 -41.48,18.647 -62.91,24.543 -13.15,3.619 -33.1,2.739 -47.722,4.827 -8.148,1.66 -17.018,1.843 -25.31,2.892 -20.561,2.6 -39.132,7.706 -57.991,16.15 24.464,-20.231 94.869,-49.311 125.883,-58.171 16.44,-4.695 33.49,-6.956 50.16,-10.694 13.91,-3.119 28.07,-7.272 42.3,-8.394 z"
     id="path24" />
  <path
     fill="#f2a8ad"
     d="m 651.833,1110.76 c 7.492,10.36 11.66,22.97 19.389,33.61 -22.619,41.17 -40.394,83.2 -55.815,127.51 -6.02,17.29 -12.322,34.94 -15.979,52.91 -0.361,1.78 -0.41,2.79 -1.392,4.3 l -2.715,-2.13 c -9.215,-9.73 -19.373,-23.28 -23.016,-36.37 -1.084,-3.9 -1.149,-7.54 -0.373,-11.5 2.091,-10.66 7.347,-21.33 11.461,-31.38 a 1153.16,1153.16 0 0 1 49.063,-103.39 c 6.106,-11.37 13.165,-22.23 19.377,-33.56 z"
     id="path25" />
  <path
     fill="#f2a8ad"
     d="m 1718.02,1762.4 c 12.17,13.6 40.1,49.93 39.16,69 -2.39,2.01 -4.36,1.72 -7.43,2.05 -34.45,6.02 -71.99,7.13 -106.96,7.83 6.95,-28.68 -0.14,-51.09 -8.48,-78.12 27.64,1.9 56.32,4.31 83.71,-0.76 z"
     id="path26" />
  <path
     fill="#f6dcbf"
     d="m 1081.52,1910.72 c 19.31,0.75 39.2,9.21 58.55,11.83 61.19,8.27 122.18,2.52 182.28,-10.11 a 298.977,298.977 0 0 1 -3.08,4.08 c -3.24,4.22 -6.94,9.9 -11.31,12.94 -12.82,8.91 -57.85,12.68 -74.73,14.94 -17.38,3.71 -36.99,3.99 -54.79,5.44 -51.43,4.19 -102.07,5.99 -153.68,5.58 -13.78,-0.11 -27.517,0.94 -41.289,-0.07 38.389,-10.26 65.759,-20.59 98.049,-44.63 z"
     id="path27" />
  <path
     fill="#f2a8ad"
     d="m 1779.01,1730.39 c 15.84,2.08 30.05,4.74 43.74,13.43 22.36,14.19 35.26,40.19 41.05,65.27 -17.32,6.49 -36.03,10.32 -54.03,14.42 l -39.66,8.01 c -6.09,-29.33 -21.55,-50.66 -40.75,-72.89 a 146.094,146.094 0 0 0 4.65,-0.69 c 19.02,-3.16 33.89,-11.8 45,-27.55 z"
     id="path28" />
  <path
     fill="#f2a8ad"
     d="m 564.315,1298.53 c 3.293,3.1 4.867,9.21 7.059,13.28 6.34,11.75 14.148,22.22 24.285,30.96 -17.86,64.42 -20.436,134.02 -17.608,200.43 -2.975,-2.31 -5.809,-4.82 -8.68,-7.25 -14.134,-13.79 -29.228,-30.38 -37.14,-48.71 -5.204,-12.06 -1.648,-29.42 -0.25,-42.16 5.383,-49.08 14.228,-100.4 32.334,-146.55 z"
     id="path29" />
  <path
     fill="#f2a8ad"
     d="m 1831.81,1677.32 c 15.57,-1.98 29.4,1.55 43.06,8.87 31.8,17.03 54.96,48 65.43,82.12 -16.26,13.7 -32.09,23.99 -51.55,32.69 l -13.09,5.36 c -5.78,-20.12 -12.25,-38.1 -26.11,-54.22 -16.65,-19.36 -39.64,-29.44 -64.88,-31.3 1.38,-4.9 1.51,-17.2 3.53,-20.19 9.42,-13.99 27.75,-20.6 43.61,-23.33 z"
     id="path30" />
  <path
     fill="#f2a8ad"
     d="m 1222.72,1469.21 c -0.54,4.87 -12.64,18.93 -15.99,24.19 -7.65,12.02 -14.28,26.08 -18.25,39.77 -9.87,34.04 -8.77,75.36 8.55,106.76 -25.91,-2.91 -44.96,-12.3 -64.97,-28.71 a 178.902,178.902 0 0 1 -45.43,-50.96 c 23.05,-30.82 53.39,-57.49 88.6,-73.63 15.2,-6.96 31.66,-12.05 47.49,-17.42 z"
     id="path31" />
  <path
     fill="#f2a8ad"
     d="m 528.049,1500.84 c 7.114,6.52 11.839,16.37 17.83,24.01 10.389,13.24 23.26,24.19 36.262,34.74 -0.975,46.94 21.055,114.18 38.602,157.7 3.674,9.11 24.747,46.13 24.661,51.87 -21.061,-7.2 -47.369,-16.04 -59.217,-36.1 -34.084,-57.71 -54.083,-130.34 -58.35,-197.04 -0.704,-10.99 -2.469,-24.53 0.212,-35.18 z"
     id="path32" />
  <path
     fill="#f2a8ad"
     d="m 1829.57,1605.34 c 22.65,-2.04 47.27,9.3 66.32,20.54 28.91,17.06 53.98,46.25 62.21,79.25 4.85,19.44 1.01,35.6 -9.12,52.48 -6.51,-21.37 -16.69,-36.52 -31.8,-52.79 a 244.006,244.006 0 0 0 -9.45,-9.27 c -18.93,-17.58 -45.25,-31.83 -71.73,-30.7 -22.31,0.95 -38.45,9.74 -53.41,25.92 -8.03,-12.13 -16.11,-23.02 -25.92,-33.74 3.76,-5.92 7.45,-11.95 11.7,-17.53 14.94,-19.65 37.14,-31.01 61.2,-34.16 z"
     id="path33" />
  <path
     fill="#f2a8ad"
     d="m 1259.88,891.882 c 0.01,0.101 0.03,0.202 0.03,0.303 0.27,7.078 -47.31,99.613 -54.23,106.857 -6.89,7.198 -17.09,12.298 -25.81,16.878 -38.77,20.36 -86.29,37.29 -130.46,37.14 -0.38,-4.13 15.72,-24.68 18.78,-29.27 16.21,-24.382 32.42,-50.1 45.7,-76.217 12.74,-3.04 25.68,-5.188 38.4,-8.336 34.56,-8.553 80.58,-24.033 107.59,-47.355 z"
     id="path34" />
  <path
     fill="#f6dcbf"
     d="m 1090.47,100.552 a 54.098,54.098 0 0 1 6.53,-0.49 c 79.27,-0.8127 160.38,24.602 217.79,80.663 55.81,54.507 93.49,140.598 102,217.85 3.49,31.62 2.11,62.958 2.39,94.632 -5.33,0.124 -11.38,0.613 -16.38,-1.513 -2.06,-8.688 0.84,-21.302 0.75,-30.539 -0.32,-33.401 -1.24,-69.013 -10,-101.445 -12.32,-45.597 -27.68,-83.448 -53.54,-123.231 -11.33,-17.439 -23.34,-33.789 -38.58,-48.095 -19.5,-18.304 -41.96,-33.067 -65.04,-46.353 -36.42,-19.1 -77.59,-30.427 -118.86,-28.836 -87.2,3.359 -164.256,37.635 -237.583,82.559 -14.412,8.829 -27.978,18.881 -42.336,27.713 -27.753,17.072 -53.341,36.077 -79.273,55.746 -8.063,6.115 -16.86,11.191 -23.714,18.711 l -1.192,1.325 -1.199,-0.174 c -0.074,-0.424 -0.18,-0.843 -0.221,-1.272 -0.576,-6.063 6.674,-12.357 10.509,-16.57 53.918,-59.222 163.939,-129.505 239.705,-157.4 33.984,-12.511 72.054,-21.641 108.244,-23.281 z"
     id="path35" />
  <path
     fill="#70404a"
     d="m 1236.81,111.303 c 51.63,14.113 107.96,35.498 145.99,74.537 10.22,10.498 20.99,21.486 29.84,33.161 42.29,55.785 63.1,127.557 65.65,197.036 0.74,19.895 1.09,40.825 0.54,60.736 -0.34,12.559 -1.85,25.052 -2.01,37.629 -12.05,-7.14 -26.26,-8.283 -38.29,-14.605 -0.23,-0.124 -1.79,-1.083 -1.81,-1.158 -0.05,-0.237 1.17,-1.864 1.29,-2.368 0.59,-2.631 -0.55,-8.25 -0.71,-11.269 -0.58,-11.039 0.86,-22.302 0.61,-33.445 -0.8,-35.785 -5.21,-70.471 -14.12,-105.148 -18.17,-70.693 -51.49,-135.017 -105.75,-184.636 -7.85,-7.177 -15.92,-14.86 -24.54,-21.076 -6.98,-5.027 -14.75,-9.094 -22.1,-13.556 -10.09,-6.132 -22.82,-10.155 -33.93,-14.276 z"
     id="path36" />
  <path
     fill="#f2a8ad"
     d="m 1280.95,1462.5 2.78,-0.1 c 56.14,-1.97 109.47,9.43 159.51,35.21 11.72,6.04 24.26,12.3 33.94,21.32 -11.51,-5.07 -23.01,-8.29 -35.53,-9.78 -47.61,-5.7 -103.87,3.82 -142.2,34.03 -8.83,7.15 -17.26,15.45 -23.75,24.81 -10.62,15.33 -19.92,39.21 -16.49,58.08 -17.77,7.19 -33.99,11.23 -52.86,14.09 -8.37,-14.9 -12.57,-32.6 -13.57,-49.59 -2.79,-47.3 15.96,-89.61 46.92,-124.8 13.45,-2.32 27.63,-2.72 41.25,-3.27 z"
     id="path37" />
  <path
     fill="#f2a8ad"
     d="m 1197.65,1015.08 c -0.21,7.67 -16.61,29.26 -21.32,36.77 -15.17,24.13 -30.78,48.31 -45.36,72.79 -8.16,13.68 -29.97,55.45 -38.81,64.27 -6.03,6.02 -15.48,10.31 -22.97,14.13 -42.23,21.56 -85.828,28.44 -132.587,30.59 l -0.938,-0.94 c -0.385,-4.49 6.935,-14.56 9.302,-18.76 29.256,-51.88 62.353,-100.84 96.123,-149.85 11.92,-1.87 24.3,-1.42 36.36,-3.09 40.37,-5.6 87.57,-20.39 120.2,-45.91 z"
     id="path38" />
  <path
     fill="#f2a8ad"
     d="m 1084.61,1203.96 0.45,0.36 c 0.08,3.16 -11.51,23.46 -13.81,28.28 a 676.991,676.991 0 0 0 -32.66,82.63 c -3.24,10.08 -6.17,38.65 -11.07,44.56 -4.61,5.55 -15.18,10.43 -21.5,14.09 -31.145,18.03 -65.88,32.21 -101.256,39.24 -13.693,2.72 -27.597,3.97 -41.387,6.08 16.936,-60.46 34.605,-124.8 67.611,-178.8 1.17,0.24 2.34,0.45 3.512,0.68 l 1.598,0.32 c 10.436,1.97 21.325,0.71 31.839,-0.16 41.543,-3.44 81.813,-13.79 116.673,-37.28 z"
     id="path39" />
  <path
     fill="#8e6e61"
     d="m 1163.75,161.416 c 16.16,-2.264 63.09,0.203 77.41,5.396 8.34,3.023 16.07,8.459 23.27,13.525 39.59,27.865 68.15,70.994 88.8,114.314 21.32,44.725 29.94,94.667 32.03,143.789 0.33,7.829 1.98,19.263 -0.58,26.6 l -0.74,-0.556 c -2.63,-15.736 -23.22,-55.485 -32.21,-70 -13.99,-26.301 -32.8,-53.367 -53.43,-74.833 -18.99,-19.76 -39.63,-39.295 -61.62,-55.712 -46.1,-34.41 -125.56,-76.09 -183.21,-77.286 22.02,-6.739 44.29,-14.536 66.81,-19.326 14.37,-3.057 28.87,-4.453 43.47,-5.911 z"
     id="path40" />
  <path
     fill="#f6dcbf"
     d="m 813.387,918.581 c 26.358,6.986 52.652,14.85 79.361,20.519 63.858,13.553 142.512,19.611 207.012,9.145 -16.19,27.914 -33.98,54.545 -52.02,81.265 -6.42,7.73 -12.31,15.69 -18.14,23.85 -12.24,0.48 -24.37,1.38 -36.626,0.9 -75.739,-2.94 -152.656,-28.97 -211.485,-77.617 9.938,-19.721 22.141,-38.201 31.898,-58.062 z"
     id="path41" />
  <path
     fill="#f2a8ad"
     d="m 1026.05,1374.17 c 2.43,3.22 0.22,13.34 -0.25,17.24 -4.17,34.04 -0.16,72.82 6.14,106.48 -7.89,11.66 -18.47,21.09 -29.11,30.18 a 329.532,329.532 0 0 1 -144.542,71.56 c -0.84,-0.79 -1.477,-1.79 -2.166,-2.71 a 479.057,479.057 0 0 1 5.71,-167.76 c 56.879,-1.49 116.348,-25.59 164.218,-54.99 z"
     id="path42" />
  <path
     fill="#f2a8ad"
     d="m 1035.94,1510.99 c 4.79,5.61 7.91,22.89 11.45,30.45 9.9,21.18 21.5,41.8 35.44,60.62 -17.83,40.24 -39.05,71.38 -72.82,99.84 -23.586,19.88 -49.772,35.97 -77.172,49.98 -5.1,2.6 -14.452,8.33 -20.187,7.85 l -1.533,-1.91 c -25.058,-46.25 -44.042,-94.58 -52.456,-146.77 66.326,-15.69 132.504,-47.49 177.278,-100.06 z"
     id="path43" />
  <path
     fill="#f2a8ad"
     d="m 1406.44,1518.56 c 19.46,-1.66 39.39,1.23 58.49,4.94 24.32,4.71 33.39,14.15 49.03,32.3 7.67,8.91 15.08,17.99 21.66,27.72 33.15,49.01 42,110.6 36.35,168.46 -0.85,8.62 -1.35,17.68 -3.11,26.17 -3.94,19.04 -27.3,30.17 -42.38,40.04 3.25,-40.08 2.15,-66.39 -10.2,-105.43 a 245.33,245.33 0 0 0 -15.94,-35.42 c -20.67,-36.79 -55.82,-63.58 -97.76,-70.52 -9.59,-1.59 -25.16,-0.18 -33.02,-2.4 0.9,-2.15 1.08,-3.22 0.79,-5.53 -1.22,-1.57 -2.27,-2.53 -4.11,-3.29 -26.32,-10.86 -74.06,15.78 -98.58,26.72 0.1,-19.9 7.33,-36.64 19.87,-51.92 21.92,-26.69 52.99,-42.82 86.84,-48.46 10.73,-1.79 21.3,-2.29 32.07,-3.38 z"
     id="path44" />
  <path
     fill="#f6dcbf"
     d="m 904.367,1776.86 c 0.614,0.2 1.316,0.23 1.841,0.6 2.215,1.59 11.826,16.66 14.732,20.4 8.557,11.01 17.392,22.19 27.48,31.84 35.5,33.97 76.82,57.43 122.13,75.66 -6.7,5.01 -14.25,9.53 -21.63,13.43 -37.46,19.8 -94.693,30.03 -137.331,27.36 -23.002,-1.44 -45.867,-6.27 -67.833,-13.07 -73.584,-26.3 -127.598,-80.63 -168.624,-145.63 4.439,1.83 8.912,3.66 13.453,5.23 61.134,21.06 157.898,12.51 215.782,-15.82 z"
     id="path45" />
  <path
     fill="#f2a8ad"
     d="m 1359.18,1615.15 c 11.75,-0.86 24.22,-0.66 35.9,0.73 34.68,4.14 63.24,22.49 84.47,49.9 33.71,43.52 43.92,104.17 37.09,157.78 -36.44,21.56 -75.31,37.43 -115.4,50.83 -17.54,6.33 -36.88,11.3 -55.27,14.3 20.67,-50.86 26.32,-102.57 5.88,-154.53 -14.8,-37.63 -41.14,-68.7 -78.58,-85.14 27.86,-15.06 54.84,-27.12 85.91,-33.87 z"
     id="path46" />
  <path
     fill="#f2a8ad"
     d="m 1090.85,1611.43 c 25.05,23.39 52.89,44.51 87.34,51.42 4.12,17.52 4.05,36.94 2.3,54.77 -6.56,66.8 -46.22,134.16 -97.56,176.41 -16.84,-7.67 -34.48,-13.82 -50.46,-23.29 -47.576,-23.57 -83.463,-58.39 -113.446,-101.6 a 229.358,229.358 0 0 0 8.925,-3.34 c 16.058,-6.44 31.708,-15.47 46.46,-24.48 53.411,-32.64 91.841,-71.75 116.441,-129.89 z"
     id="path47" />
  <path
     fill="#f6dcbf"
     d="m 598.806,1570.84 c 4.182,3.21 8.396,6.41 12.831,9.27 60.54,39.04 161.379,49.94 231.86,34.5 2.506,11.92 4.386,24.06 7.402,35.85 10.542,41.22 28.285,78.86 47.566,116.6 -4.908,2.08 -9.978,3.7 -15.029,5.4 a 596.752,596.752 0 0 1 -22.809,7.16 c -57.122,16.8 -142.615,20.12 -195.78,-8.82 -35,-64.36 -60.683,-125.91 -66.041,-199.96 z"
     id="path48" />
  <path
     fill="#f2a8ad"
     d="m 1261.39,1652.9 c 1.27,0.29 2.69,1.29 3.82,1.94 46.16,26.87 70.82,54.14 84.7,106.72 10.9,41.29 3.86,94.21 -17.5,131.17 -9.1,3.98 -19.79,5.53 -29.56,7.28 -40.09,7.16 -79.5,8.97 -120.1,8.96 -29.08,1.45 -60.16,-5.5 -88.73,-10.48 51.73,-45.94 91.87,-113.64 97.31,-183.79 a 145.962,145.962 0 0 0 0.1,-18.72 c -0.38,-6.23 -4.42,-27.25 -3,-31.41 28.47,-0.71 46.39,-0.81 72.96,-11.67 z"
     id="path49" />
  <path
     fill="#f6dcbf"
     d="m 607.618,1353.51 c 7.25,5.46 12.786,12.81 20.358,18.07 66.799,46.45 137.574,58.97 217.328,61.45 -13.795,54.85 -10.913,113.7 -4.193,169.29 l -12.778,1.43 c -84.741,9.59 -159.181,3.37 -231.505,-46.37 -3.935,-21.21 -4.283,-41.5 -4.116,-62.97 0.395,-50.89 6.288,-90.83 14.906,-140.9 z"
     id="path50" />
  <path
     fill="#f6dcbf"
     d="m 679.634,1155.63 c 5.167,4.14 9.93,10.02 14.644,14.74 53.982,54.14 140.807,76.37 215.341,76.52 -27.141,56.45 -47.108,109.05 -61.143,170.27 -2.419,2.31 -2.995,1.93 -6.226,2.11 -11.927,-0.01 -23.944,0.19 -35.857,-0.37 -65.174,-3.09 -151.253,-29.98 -195.874,-79.29 0.186,-5.23 4.186,-13.02 5.683,-18.43 a 918.781,918.781 0 0 1 63.432,-165.55 z"
     id="path51" />
  <path
     fill="#f6dcbf"
     d="m 775.552,986.456 c 12.906,8.056 23.844,19.054 37.024,26.914 61.493,36.71 137.087,56.82 208.884,51.77 -9.39,15.18 -19.97,29.54 -29.982,44.3 -24.147,35.59 -50.728,75.5 -69.247,114.27 -1.983,3.54 -4.12,6.94 -6.311,10.35 -7.363,4.19 -23.838,1.29 -32.186,0.53 -73.498,-6.73 -149.587,-32.93 -198.091,-90.9 17.71,-29.49 33.128,-60.5 50.113,-90.43 12.793,-22.54 27.306,-44.08 39.796,-66.804 z"
     id="path52" />
  <path
     fill="#f6dcbf"
     d="m 1409.96,519.423 c 23.85,-1.067 47.98,0.291 67.88,15.261 27.97,21.047 41.85,62.181 46.49,95.526 8.76,62.957 -8.32,136.33 -47.17,187.217 -18.25,23.911 -36.29,38.293 -61.85,53.647 -15.69,9.425 -28.76,16.368 -47.08,18.788 -20.25,1.712 -42.24,0.693 -58.89,-12.446 -35.34,-27.888 -51.96,-79.526 -56.96,-122.733 -6.78,-58.648 11,-123.937 47.73,-170.185 27.86,-35.076 64.84,-59.789 109.85,-65.075 z"
     id="path53" />
  <path
     fill="#4f2c30"
     d="m 1417.98,532.466 c 14.11,1.143 23.46,2.175 36.48,8.467 26.29,12.708 41.48,37.152 50.52,64.106 18.71,55.781 7.11,123.847 -19.07,175.631 -21.92,43.35 -55.36,78.461 -101.15,96.283 -3.89,1.514 -8.07,2.196 -12.05,3.511 -4.11,-0.162 -8.28,0.539 -12.44,0.408 -15.53,-0.492 -30.1,-5.399 -42.55,-14.767 -25.71,-19.352 -40.11,-57.393 -44.47,-88.211 -8.92,-62.991 4.82,-133.871 43.96,-184.994 24.94,-32.587 59.89,-55.081 100.77,-60.434 z"
     id="path54" />
  <path
     fill="#70404a"
     d="m 1413.02,552.404 c 12.64,-1.253 24.67,0.014 35.92,6.491 21.97,12.652 36.23,39.983 42.51,63.69 3.86,14.59 6.53,48.599 4.83,63.882 -0.48,4.336 -2.33,8.398 -3.03,12.699 -4.27,26.469 -9.87,51.772 -23.68,75.159 -22.69,38.427 -51.27,74.741 -96.5,86.483 a 187.992,187.992 0 0 1 -4.71,0.614 58.2771,58.2771 0 0 1 -42.81,-12.641 c -21.88,-18.026 -31.33,-49.495 -34.26,-76.602 -6.3,-58.267 4.33,-123.513 42.22,-170.009 19.98,-24.509 47.11,-46.441 79.51,-49.766 z"
     id="path55" />
  <path
     fill="#f2a8ad"
     d="m 979.91,210.421 c 11.836,-1.34 24.16,-0.546 36.05,-0.213 51.72,1.448 100.27,11.339 145.73,37.134 11.98,6.795 24.51,13.529 35.91,21.224 80.9,54.637 144.42,133.031 170.67,227.895 -30.23,6.88 -54.49,20.289 -77.99,40.275 -48.44,41.193 -73.95,111.209 -78.59,173.226 -4.07,54.48 4.85,114.154 41.74,156.631 -15.63,8.457 -30.28,18.799 -46.58,26.05 -63.36,28.19 -143.05,39.519 -212.097,34.917 -112.497,-7.195 -245.722,-46.703 -333.265,-120 -20.179,-16.896 -39.841,-35.751 -55.474,-57.008 -23.298,-31.68 -41.269,-75.166 -44.457,-114.394 -2.242,-27.58 -0.108,-56.992 7.624,-83.636 4.305,-14.834 11.571,-28.207 18.429,-41.937 20.965,-41.978 37.702,-69.843 68.443,-106.052 C 719.218,330.134 822.939,251.661 916.6,222.399 a 301.3,301.3 0 0 1 63.31,-11.978 z"
     id="path56" />
  <path
     fill="#4f2c30"
     d="m 1155,328.753 c 4.78,0.408 7.65,1.48 11.5,4.416 18.06,13.765 25.49,37.267 28.79,58.657 l -2.09,4.761 c -1.59,3.605 -2.6,5.293 -5.74,7.751 -9.17,-1.15 -14.71,-4.93 -20.99,-11.678 -10.96,-11.768 -20.6,-31.835 -19.54,-48.15 0.47,-7.179 2.84,-10.983 8.07,-15.757 z"
     id="path57" />
  <path
     fill="#4f2c30"
     d="m 904.782,254.446 c 5.233,0.083 11.117,0.422 15.334,3.858 2.415,1.967 4.613,4.872 4.675,8.11 0.053,2.778 -1.404,5.318 -3.158,7.361 -11.832,13.786 -40.916,22.601 -58.386,23.892 -5.111,0.523 -9.985,-0.157 -14.28,-3.103 -3.044,-2.089 -6.792,-5.26 -6.891,-9.261 -0.059,-2.369 1.22,-4.573 2.696,-6.326 13.335,-15.845 40.284,-23.371 60.01,-24.531 z"
     id="path58" />
  <path
     fill="#d66f88"
     d="m 1114.96,691.415 c 10.07,0.235 20.17,1.399 27.94,8.593 3.95,3.659 6.44,8.574 6.58,14.002 0.13,5.421 -2.32,10.693 -6.03,14.552 -8.64,8.982 -21.09,10.228 -32.83,10.748 -8.69,-0.276 -19.57,-2.938 -26.62,-8.241 -4.21,-3.173 -7.36,-7.752 -7.92,-13.084 -0.49,-4.542 1.25,-9.017 4.06,-12.527 8.44,-10.545 22.18,-12.917 34.82,-14.043 z"
     id="path59" />
  <path
     fill="#d66f88"
     d="m 631.269,528.235 c 11.641,-0.646 21.65,1.535 31.66,7.622 8.75,5.319 17.525,13.87 19.853,24.2 1.005,4.461 0.511,9.095 -2.253,12.85 -4.735,6.433 -12.368,7.805 -19.704,9.063 -12.816,0.35 -24.972,-0.497 -36.386,-7.007 -8.05,-4.591 -15.673,-12.04 -17.761,-21.373 -1.063,-4.75 -0.432,-9.23 2.317,-13.291 4.771,-7.049 14.236,-10.739 22.274,-12.064 z"
     id="path60" />
  <path
     fill="#4f2c30"
     d="m 800.733,598.238 c 9.532,3.664 16.839,10.598 25.468,15.799 23.235,14.006 51.941,20.44 78.848,20.631 6.41,0.045 12.96,-0.126 19.336,-0.814 7.435,-0.802 18.577,-4.848 25.606,-3.116 2.682,0.661 2.917,0.93 4.133,3.178 0.025,20.156 -18.661,54.877 -30.742,71.139 -12.279,12.743 -24.401,27.088 -41.17,33.978 -8.45,3.473 -17.005,4.262 -25.509,0.529 -18.701,-8.212 -35.47,-35.771 -42.859,-54.079 -6.796,-16.839 -20.472,-70.09 -13.111,-87.245 z"
     id="path61" />
  <path
     fill="#8e6e61"
     d="m 808.788,615.56 c 4.739,2.732 8.929,6.293 13.842,8.951 42.716,23.107 73.588,21.607 120.02,18.228 -2.115,8.395 -4.362,16.317 -8.131,24.141 l -9.753,-3.472 c -8.012,-3.244 -16.58,-5.01 -25.183,-5.723 -31.176,-2.584 -53.056,3.62 -76.725,23.589 -8.911,-19.685 -11.829,-44.378 -14.07,-65.714 z"
     id="path62" />
  <path
     fill="#f2a8ad"
     d="m 878.293,666.392 c 16.727,-1.568 37.21,0.207 52.152,8.427 -10.551,20.63 -29.081,43.085 -50.347,53.149 -5.517,2.562 -10.302,3.282 -16.265,3.849 -16.532,-8.054 -26.273,-23.196 -35.028,-38.736 1.399,-2.983 2.861,-5.809 5.042,-8.306 12.016,-13.757 27.184,-16.97 44.446,-18.383 z"
     id="path63" />
  <path
     fill="#4f2c30"
     d="m 808.106,337.262 c 19.061,-1.736 36.467,0.728 52.636,11.589 21.628,14.528 35.885,40.25 40.681,65.523 7.096,37.397 -4.864,78.663 -26.265,109.574 -23.691,34.218 -58.232,59.555 -99.557,67.063 -20.278,0.156 -37.923,-2.326 -55.129,-13.96 -22.063,-14.919 -35.648,-39.138 -40.569,-64.964 -7.028,-36.89 7.881,-76.03 28.477,-106.237 22.947,-33.654 59.372,-60.88 99.726,-68.588 z"
     id="path64" />
  <path
     fill="#fdfbf2"
     d="m 811.498,353.264 c 9.616,-1.514 21.507,-0.111 30.338,3.712 25.025,10.831 35.138,33.46 44.914,57.233 -2.111,-1.293 -4.265,-2.558 -6.558,-3.507 -8.7,-3.603 -19.884,-1.306 -28.247,2.197 -21.297,8.921 -37.839,30.333 -46.101,51.364 -6.763,17.215 -8.474,40.868 -0.466,57.933 5.301,11.297 13.748,18.125 25.297,22.127 l 15.033,-2.666 c -10.111,10.661 -23.22,18.772 -36.418,25.07 -9.261,3.841 -18.492,7.733 -28.423,9.467 -18.8,3.282 -39.401,-0.463 -55.015,-11.685 -17.247,-12.396 -26.678,-33.928 -29.744,-54.419 -5.071,-33.897 6.072,-69.988 26.344,-97.223 22.846,-30.694 50.236,-53.947 89.046,-59.603 z"
     id="path65" />
  <path
     fill="#4f2c30"
     d="m 1099.44,421.408 c 0.81,-0.179 1.13,-0.276 2.05,-0.318 19.18,-0.868 41.86,7.219 56.48,19.542 22.44,18.908 34.57,47.956 36.79,76.754 3.05,39.616 -8.54,82.06 -34.8,112.424 -24.84,28.725 -60.14,48.118 -98.21,50.682 A 91.5919,91.5919 0 0 1 999.063,659.584 C 978.406,642.267 966.906,617.6 964.79,590.872 c -3.464,-43.763 8.246,-87.018 37.29,-120.481 a 140.131,140.131 0 0 1 97.36,-48.983 z"
     id="path66" />
  <path
     fill="#fdfbf2"
     d="m 1086.41,439.28 c 13.21,-1.291 26.63,-0.891 39.1,4.062 19.24,7.645 36.48,23.463 44.47,42.698 2.53,6.107 7.42,17.638 4.81,23.983 -0.81,-0.56 -1.64,-1.095 -2.42,-1.699 -3.64,-2.833 -6.16,-4.048 -10.82,-4.807 -12.65,-2.066 -23.51,2.226 -33.67,9.467 -17.52,12.486 -28.92,32.119 -32.46,53.147 -2.77,16.487 -4.54,37.666 6.21,51.854 5.42,7.158 12.68,11.621 21.63,12.648 0.55,0.063 1.1,0.105 1.64,0.164 5.61,0.605 8.92,-0.587 13.9,-2.883 2.13,-0.98 1.09,-0.96 2.99,-0.475 a 134.67,134.67 0 0 1 -27.89,22.638 c -13.09,6.418 -26.05,12.993 -40.54,15.577 -21.38,3.813 -43.41,-0.02 -61.28,-12.655 -19.258,-13.621 -28.133,-33.047 -32.024,-55.824 -6.157,-36.054 3.651,-73.82 24.864,-103.354 19.49,-27.133 47.86,-49.168 81.49,-54.541 z"
     id="path67" />
</svg>
