<svg width="200" height="200" viewBox="0 0 200 200" fill="none" xmlns="http://www.w3.org/2000/svg">
  <!-- Brown background -->
  <circle cx="100" cy="100" r="90" fill="#3C2218"/>
  
  <!-- Worm body -->
  <path d="M60 120C60 90 70 70 100 70C130 70 140 90 140 120C140 150 130 170 100 170C70 170 60 150 60 120Z" fill="#FF8DC7"/>
  
  <!-- Worm face -->
  <circle cx="85" cy="110" r="8" fill="white"/> <!-- Left eye -->
  <circle cx="115" cy="110" r="8" fill="white"/> <!-- Right eye -->
  <circle cx="85" cy="110" r="4" fill="black"/> <!-- Left pupil -->
  <circle cx="115" cy="110" r="4" fill="black"/> <!-- Right pupil -->
  
  <!-- Rosy cheeks -->
  <circle cx="75" cy="125" r="10" fill="#FF6B9E" opacity="0.7"/>
  <circle cx="125" cy="125" r="10" fill="#FF6B9E" opacity="0.7"/>
  
  <!-- Smile -->
  <path d="M85 135C90 145 110 145 115 135" stroke="black" stroke-width="3" stroke-linecap="round"/>
  
  <!-- Headphones -->
  <path d="M50 100C50 80 70 60 100 60C130 60 150 80 150 100" stroke="#333" stroke-width="6"/>
  <rect x="40" y="95" width="15" height="25" rx="5" fill="#333"/>
  <rect x="145" y="95" width="15" height="25" rx="5" fill="#333"/>
  <rect x="45" y="100" width="10" height="15" rx="3" fill="#FF4081"/>
  <rect x="145" y="100" width="10" height="15" rx="3" fill="#FF4081"/>
</svg> 